<?xml version="1.0" standalone="no"?>
<!DOCTYPE svg PUBLIC "-//W3C//DTD SVG 20010904//EN"
 "http://www.w3.org/TR/2001/REC-SVG-20010904/DTD/svg10.dtd">
<svg version="1.0" xmlns="http://www.w3.org/2000/svg"
 width="512.000000pt" height="512.000000pt" viewBox="0 0 512.000000 512.000000"
 preserveAspectRatio="xMidYMid meet">
<metadata>
Created by potrace 1.14, written by Peter Selinger 2001-2017
</metadata>
<g transform="translate(0.000000,512.000000) scale(0.100000,-0.100000)"
fill="#000000" stroke="none">
<path d="M2460 4718 c-52 -44 -111 -95 -130 -112 -19 -17 -89 -77 -155 -133
-120 -101 -250 -212 -615 -523 -106 -91 -215 -183 -241 -205 -27 -22 -244
-206 -484 -410 l-435 -370 5 -50 c8 -97 39 -166 104 -237 72 -79 144 -112 246
-112 107 -1 187 33 257 109 37 40 85 131 93 178 9 47 21 47 30 0 19 -101 103
-209 203 -259 50 -25 68 -28 142 -28 105 0 175 30 243 103 63 67 117 181 109
228 -2 6 3 15 9 19 7 4 9 3 6 -3 -11 -18 24 -125 57 -177 44 -67 89 -109 156
-142 46 -24 68 -28 135 -29 107 0 187 34 257 110 l27 30 1 -472 0 -473 -560 0
-560 0 0 -120 0 -120 520 0 520 0 0 -560 0 -560 -120 0 -120 0 0 -80 0 -80
400 0 400 0 0 80 0 80 -120 0 -120 0 0 560 0 560 520 0 520 0 0 120 0 120
-560 0 -560 0 0 471 0 472 48 -45 c71 -67 109 -84 213 -94 91 -10 203 36 269
109 41 45 88 136 96 185 7 42 24 69 22 35 -1 -10 4 -37 11 -61 31 -111 135
-224 233 -253 132 -39 260 -6 355 91 52 54 112 184 105 227 -2 6 3 15 9 19 7
4 9 3 6 -3 -10 -15 22 -122 50 -167 51 -82 126 -146 195 -167 104 -31 202 -18
292 38 90 57 157 171 172 294 4 30 2 54 -4 58 -5 3 -33 26 -62 51 -153 129
-429 365 -455 389 -16 14 -68 57 -115 96 -47 38 -89 75 -95 81 -5 6 -37 33
-70 60 -33 27 -62 51 -65 54 -3 3 -39 34 -80 69 -41 35 -100 85 -130 111 -30
26 -154 132 -275 235 -121 103 -247 210 -279 238 -33 29 -69 59 -80 67 -12 8
-25 19 -31 25 -14 16 -413 355 -417 355 -1 -1 -46 -37 -98 -82z"/>
<path d="M560 1240 l0 -920 120 0 120 0 0 360 0 360 360 0 360 0 0 -360 0
-360 120 0 120 0 0 480 0 480 -480 0 -480 0 0 440 0 440 -120 0 -120 0 0 -920z"/>
<path d="M4320 1720 l0 -440 -480 0 -480 0 0 -480 0 -480 120 0 120 0 0 360 0
360 360 0 360 0 0 -360 0 -360 120 0 120 0 0 920 0 920 -120 0 -120 0 0 -440z"/>
</g>
</svg>
